# AST/ASF file generated using VICON BodyLanguage
# -----------------------------------------------
:version 1.10
:name VICON
:units
  mass 1.0
  length 0.45
  angle deg
:documentation
   .ast/.asf automatically generated from VICON data using
   VICON BodyBuilder and BodyLanguage model FoxedUp or BRILLIANT.MOD
:root
   order TX TY TZ RX RY RZ
   axis XYZ
   position 0 0 0  
   orientation 0 0 0 
:bonedata
  begin
     id 1 
     name lhipjoint
     direction 0.558404 -0.748506 0.357664 
     length 2.4234 
     axis 0 0 0  XYZ
  end
  begin
     id 2 
     name lfemur
     direction 0.34202 -0.939693 0  
     length 7.14567  
     axis 0 0 20  XYZ
    dof rx ry rz
    limits (-160.0 20.0)
           (-70.0 70.0)
           (-60.0 70.0)
  end
  begin
     id 3 
     name ltibia
     direction 0.34202 -0.939693 0   
     length 8.13956   
     axis 0 0 20   XYZ
    dof rx
    limits (-10.0 170.0)
  end
  begin
     id 4 
     name lfoot
     direction 0.0791314 -0.217412 0.972867   
     length 2.00134   
     axis -90 7.62852e-016 20   XYZ
    dof rx rz
    limits (-45.0 90.0)
           (-70.0 20.0)
  end
  begin
     id 5 
     name ltoes
     direction 1.53547e-011 -4.21922e-011 1   
     length 1.00735   
     axis -90 7.62852e-016 20   XYZ
    dof rx
    limits (-90.0 20.0)
  end
  begin
     id 6 
     name rhipjoint
     direction -0.496392 -0.78327 0.374276   
     length 2.31584  
     axis 0 0 0  XYZ 
  end
  begin
     id 7 
     name rfemur
     direction -0.34202 -0.939693 0   
     length 7.47417   
     axis 0 0 -20   XYZ
    dof rx ry rz
    limits (-160.0 20.0)
           (-70.0 70.0)
           (-70.0 60.0)
  end
  begin
     id 8 
     name rtibia
     direction -0.34202 -0.939693 0   
     length 7.69071   
     axis 0 0 -20   XYZ
    dof rx
    limits (-10.0 170.0)
 end
 begin
     id 9 
     name rfoot
     direction -0.103069 -0.28318 0.953512   
     length 2.16135  
     axis -90 -7.62852e-016 -20   XYZ
    dof rx rz
    limits (-45.0 90.0)
           (-20.0 70.0)
  end
  begin
     id 10 
     name rtoes
     direction -1.53581e-011 -4.21904e-011 1   
     length 1.07867   
     axis -90 -7.62852e-016 -20   XYZ
    dof rx
    limits (-90.0 20.0)
  end
  begin
     id 11 
     name lowerback
     direction -0.0258961 0.994776 -0.0987407   
     length 2.19412   
     axis 0 0 0   XYZ
    dof rx ry rz
    limits (-20.0 45.0)
           (-30.0 30.0)
           (-30.0 30.0)
  end
  begin
     id 12 
     name upperback
     direction 0.0402454 0.999185 0.00320666   
     length 2.18445   
     axis 0 0 0   XYZ
    dof rx ry rz
    limits (-20.0 45.0)
           (-30.0 30.0)
           (-30.0 30.0)
  end
  begin
     id 13 
     name thorax
     direction 0.0519376 0.997415 0.0496558   
     length 2.21487   
     axis 0 0 0   XYZ
    dof rx ry rz
    limits (-20.0 45.0)
           (-30.0 30.0)
           (-30.0 30.0)
  end
  begin
     id 14 
     name lowerneck
     direction -0.0921276 0.983211 0.157506   
     length 1.61201   
     axis 0 0 0   XYZ
    dof rx ry rz
    limits (-20.0 45.0)
           (-30.0 30.0)
           (-30.0 30.0)
  end
  begin
     id 15 
     name upperneck
     direction 0.0820814 0.98162 -0.172292   
     length 1.65275   
     axis 0 0 0   XYZ
    dof rx ry rz
    limits (-20.0 45.0)
           (-30.0 30.0)
           (-30.0 30.0)
  end
  begin
     id 16
     name head
     direction 0.0336554 0.996413 -0.0776455  
     length 1.66415  
     axis 0 0 0   XYZ
    dof rx ry rz
    limits (-20.0 45.0)
           (-30.0 30.0)
           (-30.0 30.0)
  end
  begin
     id 17 
     name lclavicle
     direction 0.94696 0.284418 -0.149576  
     length 3.41447  
     axis 0 0 0   XYZ
    dof ry rz
    limits (-20.0 10.0)
           (0.0 20.0)
  end
  begin
     id 18 
     name lhumerus
     direction 1 -0.000130264 -9.81312e-005   
     length 5.19964   
     axis 180 -30 -90   XYZ
    dof rx ry rz
    limits (-60.0 90.0)
           (-90.0 90.0)
           (-90.0 90.0)
  end
  begin
     id 19
     name lradius
     direction 1 -4.48961e-011 1.43854e-026   
     length 3.32189   
     axis 180 -30 -90   XYZ
    dof rx
    limits (-10.0 170.0)
  end
  begin
     id 20
     name lwrist
     direction 1 -4.48958e-011 3.1502e-026   
     length 1.66095   
     axis -1.97692e-014 90 90   XYZ
    dof ry
    limits (-180.0 0.0)
 end
  begin
     id 21 
     name lhand
     direction 1 -4.48927e-011 6.3004e-026   
     length 0.645616   
     axis -4.02019e-014 90 90   XYZ
    dof rx rz
    limits (-90.0 90.0)
           (-45.0 45.0)
  end
  begin
     id 22 
     name lfingers
     direction 1 -4.4904e-011 1.26008e-025   
     length 0.520512   
     axis -8.04039e-014 90 90   XYZ
    dof rx
    limits (0.0 90.0)
  end
  begin
     id 23
     name lthumb
     direction 0.707107 -6.34947e-011 0.707107   
     length 0.747354   
     axis -90 45 2.85299e-015   XYZ
    dof rx rz
    limits (-45.0 45.0)
           (-45.0 45.0)
  end
  begin
     id 24 
     name rclavicle
     direction -0.909391 0.383475 -0.161107   
     length 3.25176  
     axis 0 0 0   XYZ 
    dof ry rz
    limits (-10.0 20.0)
           (-20.0 0.0)
  end
  begin
     id 25 
     name rhumerus
     direction -1 -4.48965e-011 -1.81384e-027  
     length 5.6595   
     axis 180 30 90   XYZ
    dof rx ry rz
    limits (-90.0 60.0)
           (-90.0 90.0)
           (-90.0 90.0)
  end
  begin
     id 26 
     name rradius
     direction -1 -4.48996e-011 -8.09397e-027   
     length 3.37604   
     axis 180 30 90   XYZ
    dof rx
    limits (-10.0 170.0)
  end
  begin
     id 27 
     name rwrist
     direction -1 -4.48927e-011 -1.56669e-026   
     length 1.68802   
     axis 1.21142e-014 -90 -90   XYZ
    dof ry
    limits (-180.0 0.0)
  end
  begin
     id 28
     name rhand
     direction -1 -4.48912e-011 -3.13339e-026   
     length 0.824702   
     axis 1.99937e-014 -90 -90   XYZ
    dof rx rz
    limits (-90.0 90.0)
           (-45.0 45.0)
  end
  begin
     id 29
     name rfingers
     direction -1 -4.49011e-011 -6.26677e-026   
     length 0.664896   
     axis 3.99874e-014 -90 -90   XYZ
    dof rx
    limits (0.0 90.0)
  end
  begin
     id 30
     name rthumb
     direction -0.707107 -6.34931e-011 0.707107   
     length 0.954662   
     axis -90 -45 -2.85299e-015   XYZ
    dof rx rz
    limits (-45.0 45.0)
           (-45.0 45.0)
  end
:hierarchy
  begin
    root lhipjoint rhipjoint lowerback
    lhipjoint lfemur
    lfemur ltibia
    ltibia lfoot
    lfoot ltoes
    rhipjoint rfemur
    rfemur rtibia
    rtibia rfoot
    rfoot rtoes
    lowerback upperback
    upperback thorax
    thorax lowerneck lclavicle rclavicle
    lowerneck upperneck
    upperneck head
    lclavicle lhumerus
    lhumerus lradius
    lradius lwrist
    lwrist lhand lthumb
    lhand lfingers
    rclavicle rhumerus
    rhumerus rradius
    rradius rwrist
    rwrist rhand rthumb
    rhand rfingers
  end

#!OML:ASF F:\VICON\USERDATA\INSTALL\rory3\rory3.ASF
:FULLY-SPECIFIED
:DEGREES
328
root 4.71484 15.5788 7.22791 -8.54833 -9.88681 0.652882
lowerback 14.8177 -9.13007 -6.74913
upperback 3.25907 -12.9276 8.04186
thorax -1.18562 -6.7401 14.2899
lowerneck -4.79739 0.675471 -10.4113
upperneck 28.6301 0.812656 4.70188
head 9.76303 -0.35734 3.5135
rclavicle 9.70069e-014 -1.33583e-013
rhumerus -54.1703 -22.8803 -49.8971
rradius 29.4617
rwrist -12.3917
rhand -17.2552 20.3003
rfingers 7.12502
rthumb 8.98911 -9.48821
lclavicle 9.70069e-014 -1.33583e-013
lhumerus 16.1381 -51.7536 98.715
lradius 31.145
lwrist -1.26911
lhand -11.9235 30.4749
lfingers 7.12502
lthumb 14.1307 59.9743
rfemur -59.4477 -4.05245 33.5734
rtibia 60.1238
rfoot 18.6624 6.72153
rtoes 5.31722
lfemur -12.6668 14.0003 -49.1131
ltibia 52.9124
lfoot -2.84798 -9.60563
ltoes 31.1833
329
root 4.79136 15.6466 7.44112 -7.94269 -9.10789 0.408812
lowerback 14.3784 -9.72915 -6.89322
upperback 2.5368 -13.724 8.32575
thorax -1.39496 -7.10682 14.7201
lowerneck -5.18482 1.05454 -10.711
upperneck 29.4362 1.37097 4.86428
head 10.0806 -0.14405 3.70082
rclavicle 1.03368e-013 -2.38542e-014
rhumerus -54.4815 -22.602 -48.7864
rradius 29.1815
rwrist -11.581
rhand -17.0383 20.1441
rfingers 7.12502
rthumb 9.19839 -9.63527
lclavicle 1.03368e-013 -2.38542e-014
lhumerus 17.8489 -54.6568 97.5471
lradius 32.8172
lwrist -0.595764
lhand -11.5972 30.7361
lfingers 7.12502
lthumb 14.4452 60.2133
rfemur -58.4402 -2.92429 33.4157
rtibia 60.1587
rfoot 20.1338 7.88435
rtoes 5.70497
lfemur -12.0492 14.6507 -48.6753
ltibia 52.3498
lfoot -1.18636 -10.811
ltoes 31.4967
330
root 4.87057 15.7054 7.65198 -7.29909 -8.11537 0.289378
lowerback 13.2644 -10.2397 -6.96911
upperback 2.28616 -14.3903 8.40533
thorax -0.835495 -7.47951 14.6295
lowerneck -5.75976 1.2445 -10.0266
upperneck 29.5397 1.74458 4.36537
head 10.2107 0.0495124 3.44927
rclavicle -6.55989e-014 5.40694e-014
rhumerus -54.7019 -23.4138 -47.9832
rradius 29.1257
rwrist -10.7792
rhand -17.3431 19.6148
rfingers 7.12502
rthumb 8.90423 -10.1773
lclavicle -6.55989e-014 5.40694e-014
lhumerus 20.7312 -57.2944 95.5924
lradius 34.1798
lwrist -0.515571
lhand -11.3923 30.9813
lfingers 7.12502
lthumb 14.6425 60.4443
rfemur -57.4658 -1.95725 33.0485
rtibia 60.0087
rfoot 21.508 7.747
rtoes 8.3906
lfemur -11.4925 15.0229 -48.3969
ltibia 51.8697
lfoot 0.500187 -11.8172
ltoes 32.5591
331
root 4.9482 15.7694 7.85685 -6.1187 -6.62682 -0.951726
lowerback 11.7998 -11.0069 -5.81986
upperback 1.97347 -15.2237 8.77882
thorax -0.339256 -7.9212 14.1124
lowerneck -6.30537 1.39182 -9.2617
upperneck 29.5675 1.99509 4.01508
head 10.3178 0.213268 3.22486
rclavicle -4.77083e-015 -4.77083e-014
rhumerus -54.8712 -23.4085 -48.1132
rradius 29.6087
rwrist -12.0568
rhand -17.6575 19.0146
rfingers 7.12502
rthumb 8.60091 -10.7902
lclavicle -4.77083e-015 -4.77083e-014
lhumerus 23.7788 -59.546 93.5577
lradius 35.361
lwrist -0.793546
lhand -11.888 31.3275
lfingers 7.12502
lthumb 14.165 60.8246
rfemur -56.7373 -1.30175 33.8338
rtibia 59.6461
rfoot 21.9231 6.74098
rtoes 9.37945
lfemur -11.1578 14.642 -46.9756
ltibia 51.5197
lfoot 2.1946 -12.7941
ltoes 31.9918
332
root 5.02653 15.8217 8.07505 -5.11308 -5.07957 -1.73696
lowerback 10.116 -11.6602 -5.02508
upperback 1.76883 -15.9886 8.97351
thorax 0.395877 -8.33801 13.493
lowerneck -6.8964 1.47439 -8.62848
upperneck 29.5294 2.08622 3.99126
head 10.4147 0.329099 3.12544
rclavicle 1.96002e-013 -6.36111e-014
rhumerus -55.2119 -23.5434 -48.097
rradius 30.1646
rwrist -13.7732
rhand -17.3555 18.8694
rfingers 7.12502
rthumb 8.89233 -10.9233
lclavicle 1.96002e-013 -6.36111e-014
lhumerus 28.1885 -62.2793 89.969
lradius 36.798
lwrist -0.565682
lhand -11.245 31.2525
lfingers 7.12502
lthumb 14.7845 60.7052
rfemur -55.919 -0.829718 34.2466
rtibia 59.4246
rfoot 21.6245 5.71034
rtoes 7.83369
lfemur -10.5493 14.4821 -45.9405
ltibia 50.9022
lfoot 3.80655 -14.0483
ltoes 28.6522
333
root 5.10942 15.8623 8.30296 -4.24732 -3.86773 -1.71939
lowerback 8.49534 -12.0863 -4.95498
upperback 1.49626 -16.5419 8.92662
thorax 1.08437 -8.63501 12.9966
lowerneck -7.46203 1.48208 -7.99458
upperneck 29.5144 2.04391 4.01512
head 10.5256 0.38795 3.03019
rclavicle 1.50679e-013 -4.92986e-014
rhumerus -55.8244 -23.4589 -48.0564
rradius 30.8568
rwrist -15.4597
rhand -16.8206 18.8531
rfingers 7.12502
rthumb 9.40849 -10.9169
lclavicle 1.50679e-013 -4.92986e-014
lhumerus 32.1902 -64.3484 87.0039
lradius 38.0368
lwrist -0.951037
lhand -8.94306 30.3096
lfingers 7.12502
lthumb 17.0012 59.5856
rfemur -54.966 -0.126119 33.8186
rtibia 59.1931
rfoot 21.155 4.38291
rtoes 6.89242
lfemur -9.98279 15.0606 -45.5816
ltibia 50.1236
lfoot 5.90657 -15.5474
ltoes 27.1087
334
root 5.20898 15.8867 8.56035 -3.79242 -2.39661 -0.403434
lowerback 6.8403 -12.5585 -6.02834
upperback 1.38273 -17.2484 8.44422
thorax 2.19457 -9.03861 12.5398
lowerneck -8.32238 1.41751 -7.3147
upperneck 29.4834 1.92993 3.96704
head 10.6972 0.413766 2.89778
rclavicle 3.85642e-014 -6.99722e-014
rhumerus -56.1741 -23.4114 -48.3386
rradius 31.636
rwrist -17.1181
rhand -16.571 18.6142
rfingers 7.12502
rthumb 9.64922 -11.1448
lclavicle 3.85642e-014 -6.99722e-014
lhumerus 36.3403 -65.8079 84.0815
lradius 39.0724
lwrist -1.34919
lhand -6.50407 28.2073
lfingers 7.12502
lthumb 19.3477 57.2648
rfemur -53.7375 -0.151616 31.9109
rtibia 59.0735
rfoot 20.5951 3.34088
rtoes 6.37909
lfemur -8.61704 15.8705 -46.4142
ltibia 49.0629
lfoot 8.56976 -16.8583
ltoes 28.6781
335
root 5.30012 15.9079 8.79493 -3.08445 -0.784384 -0.0367843
lowerback 5.31499 -13.0339 -6.33767
upperback 1.2998 -17.8782 8.29969
thorax 3.14186 -9.39013 12.0729
lowerneck -9.03701 1.28236 -6.83896
upperneck 29.0804 1.70622 4.04745
head 10.703 0.392912 2.82232
rclavicle -1.23644e-013 -1.59028e-014
rhumerus -56.6614 -24.1953 -47.9173
rradius 32.105
rwrist -17.2592
rhand -16.5344 18.4139
rfingers 7.12502
rthumb 9.68454 -11.3435
lclavicle -1.23644e-013 -1.59028e-014
lhumerus 43.9788 -67.9715 77.2712
lradius 40.7032
lwrist 0.180094
lhand -7.1945 28.9288
lfingers 7.12502
lthumb 18.6838 58.0516
rfemur -52.5737 -0.000976761 30.9189
rtibia 58.6165
rfoot 20.2933 2.06131
rtoes 6.77186
lfemur -7.64288 16.2703 -46.1933
ltibia 48.2537
lfoot 11.4935 -17.9499
ltoes 29.2566
